<mxfile host="Electron" modified="2024-02-25T09:49:59.465Z" agent="Mozilla/5.0 (X11; Linux x86_64) AppleWebKit/537.36 (KHTML, like Gecko) draw.io/23.1.5 Chrome/120.0.6099.109 Electron/28.1.0 Safari/537.36" etag="ILYHOe9y48Pq9OCSTYYz" version="23.1.5" type="device">
  <diagram name="Page-1" id="2YBvvXClWsGukQMizWep">
    <mxGraphModel dx="2952" dy="1242" grid="1" gridSize="10" guides="1" tooltips="1" connect="1" arrows="1" fold="1" page="1" pageScale="1" pageWidth="850" pageHeight="1100" math="0" shadow="0">
      <root>
        <mxCell id="0" />
        <mxCell id="1" parent="0" />
        <mxCell id="LlVcsMAfbAlEh-ZR9LT1-41" value="Before" parent="0" visible="0" />
        <mxCell id="LlVcsMAfbAlEh-ZR9LT1-47" value="" style="group" vertex="1" connectable="0" parent="LlVcsMAfbAlEh-ZR9LT1-41">
          <mxGeometry x="600" y="800" width="190" height="130" as="geometry" />
        </mxCell>
        <mxCell id="LlVcsMAfbAlEh-ZR9LT1-48" value="&lt;font style=&quot;font-size: 24px;&quot;&gt;BareMetal Node&lt;/font&gt;" style="rounded=1;whiteSpace=wrap;html=1;" vertex="1" parent="LlVcsMAfbAlEh-ZR9LT1-47">
          <mxGeometry width="190" height="130" as="geometry" />
        </mxCell>
        <mxCell id="LlVcsMAfbAlEh-ZR9LT1-5" value="Bootstrap Cluster" style="swimlane;whiteSpace=wrap;html=1;startSize=23;" vertex="1" parent="LlVcsMAfbAlEh-ZR9LT1-41">
          <mxGeometry x="30" y="40" width="800" height="710" as="geometry" />
        </mxCell>
        <mxCell id="LlVcsMAfbAlEh-ZR9LT1-181" style="edgeStyle=orthogonalEdgeStyle;rounded=0;orthogonalLoop=1;jettySize=auto;html=1;entryX=0.5;entryY=0;entryDx=0;entryDy=0;" edge="1" parent="LlVcsMAfbAlEh-ZR9LT1-5" source="LlVcsMAfbAlEh-ZR9LT1-42" target="LlVcsMAfbAlEh-ZR9LT1-161">
          <mxGeometry relative="1" as="geometry" />
        </mxCell>
        <mxCell id="LlVcsMAfbAlEh-ZR9LT1-42" value="&lt;font style=&quot;font-size: 24px;&quot;&gt;CAPI Controller&lt;/font&gt;" style="rounded=0;whiteSpace=wrap;html=1;" vertex="1" parent="LlVcsMAfbAlEh-ZR9LT1-5">
          <mxGeometry x="200" y="60" width="260" height="90" as="geometry" />
        </mxCell>
        <mxCell id="LlVcsMAfbAlEh-ZR9LT1-161" value="&lt;font style=&quot;font-size: 24px;&quot;&gt;Metal3 Components&lt;/font&gt;" style="rounded=0;whiteSpace=wrap;html=1;" vertex="1" parent="LlVcsMAfbAlEh-ZR9LT1-5">
          <mxGeometry x="70" y="210" width="290" height="220" as="geometry" />
        </mxCell>
        <mxCell id="LlVcsMAfbAlEh-ZR9LT1-183" value="&lt;font style=&quot;font-size: 24px;&quot;&gt;Kamaji Components&lt;/font&gt;" style="rounded=0;whiteSpace=wrap;html=1;" vertex="1" parent="LlVcsMAfbAlEh-ZR9LT1-5">
          <mxGeometry x="450" y="210" width="290" height="120" as="geometry" />
        </mxCell>
        <mxCell id="LlVcsMAfbAlEh-ZR9LT1-9" value="&lt;font style=&quot;font-size: 24px;&quot;&gt;BareMetal Node&lt;/font&gt;" style="rounded=1;whiteSpace=wrap;html=1;" vertex="1" parent="LlVcsMAfbAlEh-ZR9LT1-41">
          <mxGeometry x="330" y="790" width="190" height="130" as="geometry" />
        </mxCell>
        <mxCell id="LlVcsMAfbAlEh-ZR9LT1-164" style="edgeStyle=orthogonalEdgeStyle;rounded=0;orthogonalLoop=1;jettySize=auto;html=1;exitX=0.5;exitY=1;exitDx=0;exitDy=0;" edge="1" parent="LlVcsMAfbAlEh-ZR9LT1-41" source="LlVcsMAfbAlEh-ZR9LT1-161" target="LlVcsMAfbAlEh-ZR9LT1-48">
          <mxGeometry relative="1" as="geometry">
            <Array as="points">
              <mxPoint x="245" y="730" />
              <mxPoint x="615" y="730" />
            </Array>
          </mxGeometry>
        </mxCell>
        <mxCell id="LlVcsMAfbAlEh-ZR9LT1-162" style="edgeStyle=orthogonalEdgeStyle;rounded=0;orthogonalLoop=1;jettySize=auto;html=1;" edge="1" parent="LlVcsMAfbAlEh-ZR9LT1-41" source="LlVcsMAfbAlEh-ZR9LT1-161" target="LlVcsMAfbAlEh-ZR9LT1-9">
          <mxGeometry relative="1" as="geometry">
            <Array as="points">
              <mxPoint x="245" y="730" />
              <mxPoint x="455" y="730" />
            </Array>
          </mxGeometry>
        </mxCell>
        <mxCell id="LlVcsMAfbAlEh-ZR9LT1-163" value="Provision" style="edgeLabel;html=1;align=center;verticalAlign=middle;resizable=0;points=[];" vertex="1" connectable="0" parent="LlVcsMAfbAlEh-ZR9LT1-162">
          <mxGeometry x="-0.7548" y="-3" relative="1" as="geometry">
            <mxPoint as="offset" />
          </mxGeometry>
        </mxCell>
        <mxCell id="LlVcsMAfbAlEh-ZR9LT1-166" value="After" visible="0" parent="0" />
        <mxCell id="LlVcsMAfbAlEh-ZR9LT1-169" value="Bootstrap Cluster" style="swimlane;whiteSpace=wrap;html=1;startSize=23;" vertex="1" parent="LlVcsMAfbAlEh-ZR9LT1-166">
          <mxGeometry x="80" y="40" width="720" height="710" as="geometry" />
        </mxCell>
        <mxCell id="LlVcsMAfbAlEh-ZR9LT1-180" style="edgeStyle=orthogonalEdgeStyle;rounded=0;orthogonalLoop=1;jettySize=auto;html=1;entryX=0.5;entryY=0;entryDx=0;entryDy=0;" edge="1" parent="LlVcsMAfbAlEh-ZR9LT1-169" source="LlVcsMAfbAlEh-ZR9LT1-171" target="LlVcsMAfbAlEh-ZR9LT1-172">
          <mxGeometry relative="1" as="geometry" />
        </mxCell>
        <mxCell id="LlVcsMAfbAlEh-ZR9LT1-171" value="&lt;font style=&quot;font-size: 24px;&quot;&gt;CAPI Controller&lt;/font&gt;" style="rounded=0;whiteSpace=wrap;html=1;" vertex="1" parent="LlVcsMAfbAlEh-ZR9LT1-169">
          <mxGeometry x="235" y="60" width="260" height="90" as="geometry" />
        </mxCell>
        <mxCell id="LlVcsMAfbAlEh-ZR9LT1-172" value="&lt;font style=&quot;font-size: 24px;&quot;&gt;Metal3 Components&lt;/font&gt;" style="rounded=0;whiteSpace=wrap;html=1;" vertex="1" parent="LlVcsMAfbAlEh-ZR9LT1-169">
          <mxGeometry x="220" y="210" width="290" height="410" as="geometry" />
        </mxCell>
        <mxCell id="LlVcsMAfbAlEh-ZR9LT1-174" style="edgeStyle=orthogonalEdgeStyle;rounded=0;orthogonalLoop=1;jettySize=auto;html=1;" edge="1" parent="LlVcsMAfbAlEh-ZR9LT1-166" source="LlVcsMAfbAlEh-ZR9LT1-172" target="LlVcsMAfbAlEh-ZR9LT1-168">
          <mxGeometry relative="1" as="geometry" />
        </mxCell>
        <mxCell id="LlVcsMAfbAlEh-ZR9LT1-175" style="edgeStyle=orthogonalEdgeStyle;rounded=0;orthogonalLoop=1;jettySize=auto;html=1;" edge="1" parent="LlVcsMAfbAlEh-ZR9LT1-166" source="LlVcsMAfbAlEh-ZR9LT1-172" target="LlVcsMAfbAlEh-ZR9LT1-173">
          <mxGeometry relative="1" as="geometry" />
        </mxCell>
        <mxCell id="LlVcsMAfbAlEh-ZR9LT1-176" value="Provision" style="edgeLabel;html=1;align=center;verticalAlign=middle;resizable=0;points=[];" vertex="1" connectable="0" parent="LlVcsMAfbAlEh-ZR9LT1-175">
          <mxGeometry x="-0.7548" y="-3" relative="1" as="geometry">
            <mxPoint as="offset" />
          </mxGeometry>
        </mxCell>
        <mxCell id="LlVcsMAfbAlEh-ZR9LT1-177" value="Cluster" style="swimlane;whiteSpace=wrap;html=1;" vertex="1" parent="LlVcsMAfbAlEh-ZR9LT1-166">
          <mxGeometry x="80" y="770" width="720" height="200" as="geometry" />
        </mxCell>
        <mxCell id="LlVcsMAfbAlEh-ZR9LT1-167" value="" style="group" vertex="1" connectable="0" parent="LlVcsMAfbAlEh-ZR9LT1-177">
          <mxGeometry x="440" y="40" width="190" height="130" as="geometry" />
        </mxCell>
        <mxCell id="LlVcsMAfbAlEh-ZR9LT1-168" value="&lt;font style=&quot;font-size: 24px;&quot;&gt;(Metal3) Worker&lt;/font&gt;" style="rounded=1;whiteSpace=wrap;html=1;" vertex="1" parent="LlVcsMAfbAlEh-ZR9LT1-167">
          <mxGeometry width="190" height="130" as="geometry" />
        </mxCell>
        <mxCell id="LlVcsMAfbAlEh-ZR9LT1-178" style="edgeStyle=orthogonalEdgeStyle;rounded=0;orthogonalLoop=1;jettySize=auto;html=1;entryX=0;entryY=0.5;entryDx=0;entryDy=0;" edge="1" parent="LlVcsMAfbAlEh-ZR9LT1-177" source="LlVcsMAfbAlEh-ZR9LT1-173" target="LlVcsMAfbAlEh-ZR9LT1-168">
          <mxGeometry relative="1" as="geometry" />
        </mxCell>
        <mxCell id="LlVcsMAfbAlEh-ZR9LT1-179" value="Manage" style="edgeLabel;html=1;align=center;verticalAlign=middle;resizable=0;points=[];" vertex="1" connectable="0" parent="LlVcsMAfbAlEh-ZR9LT1-178">
          <mxGeometry x="-0.0105" y="-8" relative="1" as="geometry">
            <mxPoint as="offset" />
          </mxGeometry>
        </mxCell>
        <mxCell id="LlVcsMAfbAlEh-ZR9LT1-173" value="&lt;font style=&quot;font-size: 24px;&quot;&gt;(Metal3) CP&lt;/font&gt;" style="rounded=1;whiteSpace=wrap;html=1;" vertex="1" parent="LlVcsMAfbAlEh-ZR9LT1-177">
          <mxGeometry x="60" y="40" width="190" height="130" as="geometry" />
        </mxCell>
        <mxCell id="LlVcsMAfbAlEh-ZR9LT1-200" value="Kamaji-Before" visible="0" parent="0" />
        <mxCell id="LlVcsMAfbAlEh-ZR9LT1-201" value="" style="group" vertex="1" connectable="0" parent="LlVcsMAfbAlEh-ZR9LT1-200">
          <mxGeometry x="600" y="800" width="190" height="130" as="geometry" />
        </mxCell>
        <mxCell id="LlVcsMAfbAlEh-ZR9LT1-202" value="&lt;font style=&quot;font-size: 24px;&quot;&gt;BareMetal Node&lt;/font&gt;" style="rounded=1;whiteSpace=wrap;html=1;" vertex="1" parent="LlVcsMAfbAlEh-ZR9LT1-201">
          <mxGeometry width="190" height="130" as="geometry" />
        </mxCell>
        <mxCell id="LlVcsMAfbAlEh-ZR9LT1-203" value="Bootstrap Cluster" style="swimlane;whiteSpace=wrap;html=1;startSize=23;" vertex="1" parent="LlVcsMAfbAlEh-ZR9LT1-200">
          <mxGeometry x="30" y="40" width="800" height="710" as="geometry" />
        </mxCell>
        <mxCell id="LlVcsMAfbAlEh-ZR9LT1-204" style="edgeStyle=orthogonalEdgeStyle;rounded=0;orthogonalLoop=1;jettySize=auto;html=1;entryX=0.5;entryY=0;entryDx=0;entryDy=0;" edge="1" parent="LlVcsMAfbAlEh-ZR9LT1-203" source="LlVcsMAfbAlEh-ZR9LT1-205" target="LlVcsMAfbAlEh-ZR9LT1-206">
          <mxGeometry relative="1" as="geometry" />
        </mxCell>
        <mxCell id="LlVcsMAfbAlEh-ZR9LT1-205" value="&lt;font style=&quot;font-size: 24px;&quot;&gt;CAPI Controller&lt;/font&gt;" style="rounded=0;whiteSpace=wrap;html=1;" vertex="1" parent="LlVcsMAfbAlEh-ZR9LT1-203">
          <mxGeometry x="200" y="60" width="260" height="90" as="geometry" />
        </mxCell>
        <mxCell id="LlVcsMAfbAlEh-ZR9LT1-206" value="&lt;font style=&quot;font-size: 24px;&quot;&gt;Metal3 Components&lt;/font&gt;" style="rounded=0;whiteSpace=wrap;html=1;" vertex="1" parent="LlVcsMAfbAlEh-ZR9LT1-203">
          <mxGeometry x="70" y="210" width="290" height="220" as="geometry" />
        </mxCell>
        <mxCell id="LlVcsMAfbAlEh-ZR9LT1-214" style="edgeStyle=orthogonalEdgeStyle;rounded=0;orthogonalLoop=1;jettySize=auto;html=1;" edge="1" parent="LlVcsMAfbAlEh-ZR9LT1-203" source="LlVcsMAfbAlEh-ZR9LT1-207" target="LlVcsMAfbAlEh-ZR9LT1-212">
          <mxGeometry relative="1" as="geometry" />
        </mxCell>
        <mxCell id="LlVcsMAfbAlEh-ZR9LT1-215" value="Create" style="edgeLabel;html=1;align=center;verticalAlign=middle;resizable=0;points=[];" vertex="1" connectable="0" parent="LlVcsMAfbAlEh-ZR9LT1-214">
          <mxGeometry x="0.2323" y="1" relative="1" as="geometry">
            <mxPoint as="offset" />
          </mxGeometry>
        </mxCell>
        <mxCell id="LlVcsMAfbAlEh-ZR9LT1-216" style="edgeStyle=orthogonalEdgeStyle;rounded=0;orthogonalLoop=1;jettySize=auto;html=1;" edge="1" parent="LlVcsMAfbAlEh-ZR9LT1-203" source="LlVcsMAfbAlEh-ZR9LT1-207" target="LlVcsMAfbAlEh-ZR9LT1-213">
          <mxGeometry relative="1" as="geometry">
            <Array as="points">
              <mxPoint x="770" y="270" />
              <mxPoint x="770" y="420" />
              <mxPoint x="690" y="420" />
            </Array>
          </mxGeometry>
        </mxCell>
        <mxCell id="LlVcsMAfbAlEh-ZR9LT1-217" value="Create" style="edgeLabel;html=1;align=center;verticalAlign=middle;resizable=0;points=[];" vertex="1" connectable="0" parent="LlVcsMAfbAlEh-ZR9LT1-216">
          <mxGeometry x="-0.4286" y="-1" relative="1" as="geometry">
            <mxPoint as="offset" />
          </mxGeometry>
        </mxCell>
        <mxCell id="LlVcsMAfbAlEh-ZR9LT1-207" value="&lt;font style=&quot;font-size: 24px;&quot;&gt;Kamaji Components&lt;/font&gt;" style="rounded=0;whiteSpace=wrap;html=1;" vertex="1" parent="LlVcsMAfbAlEh-ZR9LT1-203">
          <mxGeometry x="450" y="210" width="290" height="120" as="geometry" />
        </mxCell>
        <mxCell id="LlVcsMAfbAlEh-ZR9LT1-212" value="&lt;font style=&quot;font-size: 24px;&quot;&gt;Tenant CP&lt;/font&gt;" style="rounded=0;whiteSpace=wrap;html=1;" vertex="1" parent="LlVcsMAfbAlEh-ZR9LT1-203">
          <mxGeometry x="320" y="510" width="120" height="60" as="geometry" />
        </mxCell>
        <mxCell id="LlVcsMAfbAlEh-ZR9LT1-213" value="&lt;font style=&quot;font-size: 24px;&quot;&gt;Tenant CP&lt;/font&gt;" style="rounded=0;whiteSpace=wrap;html=1;" vertex="1" parent="LlVcsMAfbAlEh-ZR9LT1-203">
          <mxGeometry x="630" y="510" width="120" height="60" as="geometry" />
        </mxCell>
        <mxCell id="LlVcsMAfbAlEh-ZR9LT1-208" value="&lt;font style=&quot;font-size: 24px;&quot;&gt;BareMetal Node&lt;/font&gt;" style="rounded=1;whiteSpace=wrap;html=1;" vertex="1" parent="LlVcsMAfbAlEh-ZR9LT1-200">
          <mxGeometry x="330" y="790" width="190" height="130" as="geometry" />
        </mxCell>
        <mxCell id="LlVcsMAfbAlEh-ZR9LT1-209" style="edgeStyle=orthogonalEdgeStyle;rounded=0;orthogonalLoop=1;jettySize=auto;html=1;exitX=0.5;exitY=1;exitDx=0;exitDy=0;" edge="1" parent="LlVcsMAfbAlEh-ZR9LT1-200" source="LlVcsMAfbAlEh-ZR9LT1-206" target="LlVcsMAfbAlEh-ZR9LT1-202">
          <mxGeometry relative="1" as="geometry">
            <Array as="points">
              <mxPoint x="245" y="730" />
              <mxPoint x="615" y="730" />
            </Array>
          </mxGeometry>
        </mxCell>
        <mxCell id="LlVcsMAfbAlEh-ZR9LT1-210" style="edgeStyle=orthogonalEdgeStyle;rounded=0;orthogonalLoop=1;jettySize=auto;html=1;" edge="1" parent="LlVcsMAfbAlEh-ZR9LT1-200" source="LlVcsMAfbAlEh-ZR9LT1-206" target="LlVcsMAfbAlEh-ZR9LT1-208">
          <mxGeometry relative="1" as="geometry">
            <Array as="points">
              <mxPoint x="245" y="730" />
              <mxPoint x="455" y="730" />
            </Array>
          </mxGeometry>
        </mxCell>
        <mxCell id="LlVcsMAfbAlEh-ZR9LT1-211" value="Provision" style="edgeLabel;html=1;align=center;verticalAlign=middle;resizable=0;points=[];" vertex="1" connectable="0" parent="LlVcsMAfbAlEh-ZR9LT1-210">
          <mxGeometry x="-0.7548" y="-3" relative="1" as="geometry">
            <mxPoint as="offset" />
          </mxGeometry>
        </mxCell>
        <mxCell id="LlVcsMAfbAlEh-ZR9LT1-218" value="Kamaji After" visible="0" parent="0" />
        <mxCell id="LlVcsMAfbAlEh-ZR9LT1-221" value="Bootstrap Cluster" style="swimlane;whiteSpace=wrap;html=1;startSize=23;" vertex="1" parent="LlVcsMAfbAlEh-ZR9LT1-218">
          <mxGeometry x="130" y="40" width="840" height="710" as="geometry" />
        </mxCell>
        <mxCell id="LlVcsMAfbAlEh-ZR9LT1-234" style="edgeStyle=orthogonalEdgeStyle;rounded=0;orthogonalLoop=1;jettySize=auto;html=1;" edge="1" parent="LlVcsMAfbAlEh-ZR9LT1-221" source="LlVcsMAfbAlEh-ZR9LT1-224" target="LlVcsMAfbAlEh-ZR9LT1-232">
          <mxGeometry relative="1" as="geometry">
            <Array as="points">
              <mxPoint x="115" y="690" />
              <mxPoint x="325" y="690" />
            </Array>
          </mxGeometry>
        </mxCell>
        <mxCell id="LlVcsMAfbAlEh-ZR9LT1-235" value="Provision" style="edgeLabel;html=1;align=center;verticalAlign=middle;resizable=0;points=[];" vertex="1" connectable="0" parent="LlVcsMAfbAlEh-ZR9LT1-234">
          <mxGeometry x="-0.7548" y="-3" relative="1" as="geometry">
            <mxPoint as="offset" />
          </mxGeometry>
        </mxCell>
        <mxCell id="LlVcsMAfbAlEh-ZR9LT1-233" style="edgeStyle=orthogonalEdgeStyle;rounded=0;orthogonalLoop=1;jettySize=auto;html=1;exitX=0.5;exitY=1;exitDx=0;exitDy=0;" edge="1" parent="LlVcsMAfbAlEh-ZR9LT1-221" source="LlVcsMAfbAlEh-ZR9LT1-224" target="LlVcsMAfbAlEh-ZR9LT1-220">
          <mxGeometry relative="1" as="geometry">
            <Array as="points">
              <mxPoint x="195" y="690" />
              <mxPoint x="565" y="690" />
            </Array>
          </mxGeometry>
        </mxCell>
        <mxCell id="LlVcsMAfbAlEh-ZR9LT1-222" style="edgeStyle=orthogonalEdgeStyle;rounded=0;orthogonalLoop=1;jettySize=auto;html=1;entryX=0.5;entryY=0;entryDx=0;entryDy=0;" edge="1" parent="LlVcsMAfbAlEh-ZR9LT1-221" source="LlVcsMAfbAlEh-ZR9LT1-223" target="LlVcsMAfbAlEh-ZR9LT1-224">
          <mxGeometry relative="1" as="geometry" />
        </mxCell>
        <mxCell id="LlVcsMAfbAlEh-ZR9LT1-223" value="&lt;font style=&quot;font-size: 24px;&quot;&gt;CAPI Controller&lt;/font&gt;" style="rounded=0;whiteSpace=wrap;html=1;" vertex="1" parent="LlVcsMAfbAlEh-ZR9LT1-221">
          <mxGeometry x="200" y="60" width="260" height="90" as="geometry" />
        </mxCell>
        <mxCell id="LlVcsMAfbAlEh-ZR9LT1-224" value="&lt;font style=&quot;font-size: 24px;&quot;&gt;Metal3 Components&lt;/font&gt;" style="rounded=0;whiteSpace=wrap;html=1;" vertex="1" parent="LlVcsMAfbAlEh-ZR9LT1-221">
          <mxGeometry x="70" y="210" width="290" height="220" as="geometry" />
        </mxCell>
        <mxCell id="LlVcsMAfbAlEh-ZR9LT1-225" style="edgeStyle=orthogonalEdgeStyle;rounded=0;orthogonalLoop=1;jettySize=auto;html=1;" edge="1" parent="LlVcsMAfbAlEh-ZR9LT1-221" source="LlVcsMAfbAlEh-ZR9LT1-229" target="LlVcsMAfbAlEh-ZR9LT1-230">
          <mxGeometry relative="1" as="geometry" />
        </mxCell>
        <mxCell id="LlVcsMAfbAlEh-ZR9LT1-226" value="Create" style="edgeLabel;html=1;align=center;verticalAlign=middle;resizable=0;points=[];" vertex="1" connectable="0" parent="LlVcsMAfbAlEh-ZR9LT1-225">
          <mxGeometry x="0.2323" y="1" relative="1" as="geometry">
            <mxPoint as="offset" />
          </mxGeometry>
        </mxCell>
        <mxCell id="LlVcsMAfbAlEh-ZR9LT1-227" style="edgeStyle=orthogonalEdgeStyle;rounded=0;orthogonalLoop=1;jettySize=auto;html=1;" edge="1" parent="LlVcsMAfbAlEh-ZR9LT1-221" source="LlVcsMAfbAlEh-ZR9LT1-229" target="LlVcsMAfbAlEh-ZR9LT1-231">
          <mxGeometry relative="1" as="geometry">
            <Array as="points">
              <mxPoint x="770" y="270" />
              <mxPoint x="770" y="420" />
              <mxPoint x="690" y="420" />
            </Array>
          </mxGeometry>
        </mxCell>
        <mxCell id="LlVcsMAfbAlEh-ZR9LT1-228" value="Create" style="edgeLabel;html=1;align=center;verticalAlign=middle;resizable=0;points=[];" vertex="1" connectable="0" parent="LlVcsMAfbAlEh-ZR9LT1-227">
          <mxGeometry x="-0.4286" y="-1" relative="1" as="geometry">
            <mxPoint as="offset" />
          </mxGeometry>
        </mxCell>
        <mxCell id="LlVcsMAfbAlEh-ZR9LT1-229" value="&lt;font style=&quot;font-size: 24px;&quot;&gt;Kamaji Components&lt;/font&gt;" style="rounded=0;whiteSpace=wrap;html=1;" vertex="1" parent="LlVcsMAfbAlEh-ZR9LT1-221">
          <mxGeometry x="450" y="210" width="290" height="120" as="geometry" />
        </mxCell>
        <mxCell id="LlVcsMAfbAlEh-ZR9LT1-238" value="Cluster" style="swimlane;whiteSpace=wrap;html=1;" vertex="1" parent="LlVcsMAfbAlEh-ZR9LT1-221">
          <mxGeometry x="570" y="470" width="260" height="460" as="geometry" />
        </mxCell>
        <mxCell id="LlVcsMAfbAlEh-ZR9LT1-250" value="" style="rounded=0;whiteSpace=wrap;html=1;" vertex="1" parent="LlVcsMAfbAlEh-ZR9LT1-238">
          <mxGeometry y="20" width="260" height="440" as="geometry" />
        </mxCell>
        <mxCell id="LlVcsMAfbAlEh-ZR9LT1-219" value="" style="group" vertex="1" connectable="0" parent="LlVcsMAfbAlEh-ZR9LT1-238">
          <mxGeometry x="20" y="290" width="190" height="130" as="geometry" />
        </mxCell>
        <mxCell id="LlVcsMAfbAlEh-ZR9LT1-220" value="&lt;font style=&quot;font-size: 24px;&quot;&gt;(Metal3) Worker&lt;br&gt;&lt;/font&gt;" style="rounded=1;whiteSpace=wrap;html=1;" vertex="1" parent="LlVcsMAfbAlEh-ZR9LT1-219">
          <mxGeometry width="190" height="130" as="geometry" />
        </mxCell>
        <mxCell id="LlVcsMAfbAlEh-ZR9LT1-237" value="Cluster" style="swimlane;whiteSpace=wrap;html=1;" vertex="1" parent="LlVcsMAfbAlEh-ZR9LT1-221">
          <mxGeometry x="200" y="470" width="290" height="450" as="geometry" />
        </mxCell>
        <mxCell id="LlVcsMAfbAlEh-ZR9LT1-248" value="" style="rounded=0;whiteSpace=wrap;html=1;" vertex="1" parent="LlVcsMAfbAlEh-ZR9LT1-237">
          <mxGeometry y="20" width="290" height="430" as="geometry" />
        </mxCell>
        <mxCell id="LlVcsMAfbAlEh-ZR9LT1-232" value="&lt;span style=&quot;font-size: 24px;&quot;&gt;(Metal3) Worker&lt;/span&gt;" style="rounded=1;whiteSpace=wrap;html=1;" vertex="1" parent="LlVcsMAfbAlEh-ZR9LT1-237">
          <mxGeometry x="35" y="280" width="190" height="130" as="geometry" />
        </mxCell>
        <mxCell id="LlVcsMAfbAlEh-ZR9LT1-230" value="&lt;font style=&quot;font-size: 24px;&quot;&gt;Tenant CP&lt;/font&gt;" style="rounded=0;whiteSpace=wrap;html=1;" vertex="1" parent="LlVcsMAfbAlEh-ZR9LT1-221">
          <mxGeometry x="335" y="510" width="120" height="60" as="geometry" />
        </mxCell>
        <mxCell id="LlVcsMAfbAlEh-ZR9LT1-242" style="edgeStyle=orthogonalEdgeStyle;rounded=0;orthogonalLoop=1;jettySize=auto;html=1;entryX=0.5;entryY=0;entryDx=0;entryDy=0;" edge="1" parent="LlVcsMAfbAlEh-ZR9LT1-221" source="LlVcsMAfbAlEh-ZR9LT1-231" target="LlVcsMAfbAlEh-ZR9LT1-220">
          <mxGeometry relative="1" as="geometry" />
        </mxCell>
        <mxCell id="LlVcsMAfbAlEh-ZR9LT1-243" value="Manage" style="edgeLabel;html=1;align=center;verticalAlign=middle;resizable=0;points=[];" vertex="1" connectable="0" parent="LlVcsMAfbAlEh-ZR9LT1-242">
          <mxGeometry x="-0.583" y="-7" relative="1" as="geometry">
            <mxPoint as="offset" />
          </mxGeometry>
        </mxCell>
        <mxCell id="LlVcsMAfbAlEh-ZR9LT1-231" value="&lt;font style=&quot;font-size: 24px;&quot;&gt;Tenant CP&lt;/font&gt;" style="rounded=0;whiteSpace=wrap;html=1;" vertex="1" parent="LlVcsMAfbAlEh-ZR9LT1-221">
          <mxGeometry x="630" y="510" width="120" height="60" as="geometry" />
        </mxCell>
        <mxCell id="LlVcsMAfbAlEh-ZR9LT1-240" style="edgeStyle=orthogonalEdgeStyle;rounded=0;orthogonalLoop=1;jettySize=auto;html=1;" edge="1" parent="LlVcsMAfbAlEh-ZR9LT1-221" source="LlVcsMAfbAlEh-ZR9LT1-230" target="LlVcsMAfbAlEh-ZR9LT1-232">
          <mxGeometry relative="1" as="geometry" />
        </mxCell>
        <mxCell id="LlVcsMAfbAlEh-ZR9LT1-241" value="Manage" style="edgeLabel;html=1;align=center;verticalAlign=middle;resizable=0;points=[];" vertex="1" connectable="0" parent="LlVcsMAfbAlEh-ZR9LT1-240">
          <mxGeometry x="-0.46" y="3" relative="1" as="geometry">
            <mxPoint as="offset" />
          </mxGeometry>
        </mxCell>
        <mxCell id="LlVcsMAfbAlEh-ZR9LT1-279" value="Untitled Layer" parent="0" />
        <mxCell id="LlVcsMAfbAlEh-ZR9LT1-280" value="Bootstrap Cluster" style="swimlane;whiteSpace=wrap;html=1;startSize=23;" vertex="1" parent="LlVcsMAfbAlEh-ZR9LT1-279">
          <mxGeometry x="80" y="40" width="720" height="710" as="geometry" />
        </mxCell>
        <mxCell id="LlVcsMAfbAlEh-ZR9LT1-281" style="edgeStyle=orthogonalEdgeStyle;rounded=0;orthogonalLoop=1;jettySize=auto;html=1;entryX=0.5;entryY=0;entryDx=0;entryDy=0;" edge="1" parent="LlVcsMAfbAlEh-ZR9LT1-280" source="LlVcsMAfbAlEh-ZR9LT1-282" target="LlVcsMAfbAlEh-ZR9LT1-283">
          <mxGeometry relative="1" as="geometry" />
        </mxCell>
        <mxCell id="LlVcsMAfbAlEh-ZR9LT1-282" value="&lt;font style=&quot;font-size: 24px;&quot;&gt;CAPI Controller&lt;/font&gt;" style="rounded=0;whiteSpace=wrap;html=1;" vertex="1" parent="LlVcsMAfbAlEh-ZR9LT1-280">
          <mxGeometry x="235" y="60" width="260" height="90" as="geometry" />
        </mxCell>
        <mxCell id="LlVcsMAfbAlEh-ZR9LT1-283" value="&lt;font style=&quot;font-size: 24px;&quot;&gt;Metal3 Components&lt;/font&gt;" style="rounded=0;whiteSpace=wrap;html=1;" vertex="1" parent="LlVcsMAfbAlEh-ZR9LT1-280">
          <mxGeometry x="220" y="210" width="290" height="410" as="geometry" />
        </mxCell>
        <mxCell id="LlVcsMAfbAlEh-ZR9LT1-284" style="edgeStyle=orthogonalEdgeStyle;rounded=0;orthogonalLoop=1;jettySize=auto;html=1;" edge="1" parent="LlVcsMAfbAlEh-ZR9LT1-279" source="LlVcsMAfbAlEh-ZR9LT1-283">
          <mxGeometry relative="1" as="geometry">
            <mxPoint x="615" y="810" as="targetPoint" />
          </mxGeometry>
        </mxCell>
        <mxCell id="LlVcsMAfbAlEh-ZR9LT1-285" style="edgeStyle=orthogonalEdgeStyle;rounded=0;orthogonalLoop=1;jettySize=auto;html=1;" edge="1" parent="LlVcsMAfbAlEh-ZR9LT1-279" source="LlVcsMAfbAlEh-ZR9LT1-283" target="LlVcsMAfbAlEh-ZR9LT1-292">
          <mxGeometry relative="1" as="geometry" />
        </mxCell>
        <mxCell id="LlVcsMAfbAlEh-ZR9LT1-286" value="Provision" style="edgeLabel;html=1;align=center;verticalAlign=middle;resizable=0;points=[];" vertex="1" connectable="0" parent="LlVcsMAfbAlEh-ZR9LT1-285">
          <mxGeometry x="-0.7548" y="-3" relative="1" as="geometry">
            <mxPoint as="offset" />
          </mxGeometry>
        </mxCell>
        <mxCell id="LlVcsMAfbAlEh-ZR9LT1-287" value="Cluster" style="swimlane;whiteSpace=wrap;html=1;" vertex="1" parent="LlVcsMAfbAlEh-ZR9LT1-279">
          <mxGeometry x="80" y="770" width="320" height="200" as="geometry" />
        </mxCell>
        <mxCell id="LlVcsMAfbAlEh-ZR9LT1-292" value="&lt;font style=&quot;font-size: 24px;&quot;&gt;(Metal3) CP&lt;/font&gt;" style="rounded=1;whiteSpace=wrap;html=1;" vertex="1" parent="LlVcsMAfbAlEh-ZR9LT1-287">
          <mxGeometry x="60" y="40" width="190" height="130" as="geometry" />
        </mxCell>
        <mxCell id="LlVcsMAfbAlEh-ZR9LT1-293" value="Cluster" style="swimlane;whiteSpace=wrap;html=1;" vertex="1" parent="LlVcsMAfbAlEh-ZR9LT1-279">
          <mxGeometry x="460" y="770" width="320" height="200" as="geometry" />
        </mxCell>
        <mxCell id="LlVcsMAfbAlEh-ZR9LT1-296" value="&lt;font style=&quot;font-size: 24px;&quot;&gt;(Metal3) CP&lt;/font&gt;" style="rounded=1;whiteSpace=wrap;html=1;" vertex="1" parent="LlVcsMAfbAlEh-ZR9LT1-293">
          <mxGeometry x="60" y="40" width="190" height="130" as="geometry" />
        </mxCell>
      </root>
    </mxGraphModel>
  </diagram>
</mxfile>
